<?xml version="1.0"?>
<svg xmlns="http://www.w3.org/2000/svg" version="1.2" baseProfile="tiny" width="800" height="185" viewBox="0 0 800 185" stroke-linecap="round" stroke-linejoin="round">
<g id="cb_2015_puerto_rico_county_20m">
<path d="M 573.5792 16.6201 574.095 16.6201 599.371 19.6673 620.5204 26.9039 622.0679 27.2847 638.0588 33.3778 646.8281 35.6625 653.5339 37.5664 670.5566 38.3279 681.3891 39.0895 692.2217 37.1856 698.4118 47.8461 698.4118 58.1237 680.8733 62.3103 684.4842 67.6383 691.7059 79.8143 688.6109 92.368 678.2941 96.1715 671.0724 98.8338 660.2398 102.6369 649.4072 106.8199 642.1855 109.4817 636.5113 117.8464 629.2896 135.712 627.2262 139.8924 620.5204 149.7722 614.8462 153.5716 605.0452 160.7897 597.3077 162.3092 576.1584 166.4875 566.3575 164.9682 564.2941 164.5883 559.1357 177.1218 551.3982 173.7039 542.629 170.2857 526.1222 178.6409 507.0362 182.4382 500.3303 183.5773 484.3394 169.9059 472.991 164.5883 472.4751 164.5883 459.0633 175.9825 441.5249 163.4488 438.9457 163.4488 422.4389 161.5494 413.6697 164.5883 401.2896 169.1463 383.2353 163.4488 378.0769 166.8674 368.276 162.689 362.6018 160.4098 353.8326 160.4098 350.7376 158.8903 345.5792 161.9293 343 163.8286 327.009 172.5645 321.3348 172.1847 314.1131 171.8049 301.2172 179.4003 292.9638 178.2611 286.2579 170.2857 285.2262 169.1463 275.4253 166.8674 264.0769 165.348 253.7602 172.1847 248.6018 172.1847 240.8643 171.8049 226.4208 178.2611 218.1674 159.2702 218.6833 146.3525 221.7783 129.6308 226.9367 106.0594 233.6425 91.2268 224.3575 76.0096 218.6833 67.2577 214.0407 66.116 211.4615 65.7355 200.629 46.704 209.914 43.2776 213.5249 41.7547 233.1267 30.3314 230.5475 14.7154 243.4434 1 251.6968 1 267.6878 1 292.9638 6.3342 302.2489 8.2391 308.9548 8.2391 327.5249 7.0962 338.3575 6.7152 348.6742 9.7631 357.4434 12.8107 389.4253 6.3342 400.2579 8.2391 415.733 10.9059 434.3032 13.9536 443.0724 10.144 448.7466 7.8582 469.3801 10.9059 479.181 12.4298 479.6968 12.4298 496.2036 11.6679 514.2579 13.5726 516.8371 13.9536 531.2805 12.4298 533.8597 13.1917 560.1674 18.5246 561.7149 18.1437 573.5792 16.6201 Z M 763.9231 51.6528 788.6833 52.7948 799 59.2656 793.3258 65.3549 780.9457 71.8241 764.9548 63.0715 763.9231 51.6528 Z M 695.3167 125.8297 715.9502 110.6224 747.4163 107.9607 779.3982 112.1433 778.3665 125.8297 754.1222 124.3091 731.9412 131.1511 705.1176 132.6715 695.3167 125.8297 Z M 5.1267 118.6068 18.0226 115.5653 32.9819 118.2266 40.2036 131.5312 31.4344 143.3126 21.1176 145.9725 1 134.5718 5.1267 118.6068 Z"/>
</g>
</svg>